<?xml version="1.0" standalone="no"?>
<!DOCTYPE svg PUBLIC "-//W3C//DTD SVG 20010904//EN"
 "http://www.w3.org/TR/2001/REC-SVG-20010904/DTD/svg10.dtd">
<svg version="1.0" xmlns="http://www.w3.org/2000/svg"
 width="1080.000000pt" height="979.000000pt" viewBox="0 0 1080.000000 979.000000"
 preserveAspectRatio="xMidYMid meet">

<g transform="translate(0.000000,979.000000) scale(0.100000,-0.100000)"
fill="#000000" stroke="none">
<path d="M5310 5315 l0 -275 1080 0 1080 0 -2 -800 -3 -800 -1873 -3 -1872 -2
0 538 0 537 -275 0 -275 0 2 -812 3 -813 2420 0 2420 0 3 1353 2 1352 -1355 0
-1355 0 0 -275z"/>
<path d="M2181 2469 c-80 -15 -116 -53 -127 -132 -13 -95 22 -144 174 -247 68
-45 96 -88 85 -131 -10 -39 -23 -49 -68 -49 -55 0 -68 17 -73 96 l-4 64 -59 0
-59 0 0 -63 c0 -45 6 -75 23 -107 33 -66 64 -84 152 -88 132 -7 202 48 212
166 7 87 -20 129 -136 211 -114 80 -137 107 -124 147 13 39 55 54 91 33 21
-12 29 -26 36 -67 l9 -52 55 0 54 0 -4 65 c-4 71 -24 108 -74 136 -37 21 -107
29 -163 18z"/>
<path d="M4116 2469 c-57 -9 -93 -33 -119 -76 -25 -43 -40 -188 -34 -326 7
-148 28 -200 97 -235 38 -20 57 -23 127 -20 163 6 200 75 190 363 -2 83 -10
166 -17 185 -33 91 -119 129 -244 109z m93 -99 c36 -19 46 -68 46 -225 0 -205
-11 -235 -85 -235 -30 0 -43 6 -59 26 -19 25 -21 40 -21 200 0 106 4 183 11
198 18 39 70 57 108 36z"/>
<path d="M5383 2469 c-23 -4 -51 -13 -62 -18 -35 -19 -62 -69 -68 -124 -7 -77
23 -128 118 -195 129 -91 138 -100 145 -137 10 -55 -15 -85 -72 -85 -42 0 -46
2 -60 35 -7 19 -14 55 -14 80 l0 45 -60 0 -60 0 0 -63 c0 -128 68 -197 196
-197 116 0 194 71 194 177 0 79 -25 119 -114 185 -151 110 -146 105 -146 148
0 43 18 60 63 60 34 0 59 -32 64 -85 l6 -45 54 0 55 0 -4 65 c-4 71 -24 108
-74 136 -37 21 -106 29 -161 18z"/>
<path d="M2656 2445 c-9 -9 -20 -33 -25 -53 -20 -73 -131 -551 -131 -562 0 -7
21 -10 62 -8 l61 3 16 70 16 70 98 3 97 3 0 -76 0 -75 50 0 50 0 0 320 0 320
-139 0 c-113 0 -143 -3 -155 -15z m194 -220 l0 -165 -85 0 c-100 0 -94 -13
-65 145 11 60 20 123 20 140 0 18 3 35 7 38 3 4 33 7 65 7 l58 0 0 -165z"/>
<path d="M3020 2141 l0 -321 60 0 60 0 0 140 0 140 38 0 c55 0 110 -18 116
-38 2 -9 8 -62 11 -117 4 -55 12 -106 17 -112 10 -13 138 -19 138 -7 0 3 -6
12 -14 19 -9 10 -16 51 -21 122 -7 126 -17 156 -53 173 l-27 12 26 14 c53 27
76 146 41 213 -34 69 -55 76 -233 79 l-159 4 0 -321z m265 209 c10 -8 15 -31
15 -65 0 -71 -28 -95 -106 -95 l-54 0 0 83 c0 46 3 87 8 91 11 12 120 0 137
-14z"/>
<path d="M3482 2413 l3 -46 73 2 72 2 0 -275 0 -276 60 0 60 0 2 273 3 272 78
0 77 0 0 48 0 47 -216 0 -215 0 3 -47z"/>
<path d="M4492 2143 l3 -318 58 -3 57 -3 0 141 0 140 38 0 c55 0 110 -18 116
-38 2 -9 8 -62 11 -117 4 -55 12 -106 17 -112 13 -16 138 -18 138 -3 0 6 -4
10 -9 10 -13 0 -19 38 -26 150 -7 107 -16 133 -53 150 l-27 12 23 12 c38 20
55 55 59 125 3 54 1 72 -16 98 -39 62 -59 68 -233 71 l-158 4 2 -319z m262
208 c11 -9 16 -30 16 -67 0 -73 -22 -94 -102 -94 l-58 0 0 83 c0 46 3 87 8 91
11 12 118 1 136 -13z"/>
<path d="M5020 2140 l0 -320 60 0 60 0 0 320 0 320 -60 0 -60 0 0 -320z"/>
<path d="M5740 2140 l0 -320 170 0 170 0 0 50 0 50 -110 0 -110 0 0 95 0 95
91 0 90 0 -3 48 -3 47 -88 3 -88 3 3 77 3 77 108 3 107 3 0 44 0 45 -170 0
-170 0 0 -320z"/>
<path d="M6180 2140 l0 -320 62 0 61 0 -7 193 c-3 105 -9 210 -11 232 -4 26 8
2 34 -70 22 -60 62 -164 89 -230 l48 -120 62 -3 62 -3 0 321 0 320 -62 0 -61
0 7 -192 c4 -106 9 -211 12 -233 3 -25 -14 12 -44 95 -27 74 -67 178 -88 230
l-39 95 -63 3 -62 3 0 -321z"/>
</g>
</svg>
